<svg xmlns="http://www.w3.org/2000/svg" viewBox="0 0 100 158"><defs><style>.a{fill:#bec4c8;}.b{fill:#ecf0f1;}.c{fill:#5ac5f0;}.d{fill:#085a9d;}.e{fill:#96a5a6;}.f{fill:#08599d;}.g{fill:#5cc5f0;}</style></defs><title>logo</title><path class="a" d="M12.16,17.24A5.16,5.16,0,0,0,7,22.39V58.48a5.17,5.17,0,0,0,5.16,5.16H48.24a5.17,5.17,0,0,0,5.16-5.16V22.39a5.16,5.16,0,0,0-5.16-5.15H12.16Z"/><path class="b" d="M12.16,14.66A5.16,5.16,0,0,0,7,19.81V55.9a5.16,5.16,0,0,0,5.16,5.16H48.24A5.16,5.16,0,0,0,53.4,55.9V19.81a5.16,5.16,0,0,0-5.16-5.15H12.16Z"/><path class="c" d="M12.16,14.66A5.16,5.16,0,0,0,7,19.81V30.13H53.4V19.81a5.16,5.16,0,0,0-5.16-5.15H12.16Z"/><path class="d" d="M18.6,21.1a3.87,3.87,0,1,1-3.87-3.86A3.87,3.87,0,0,1,18.6,21.1Z"/><path class="d" d="M49.53,21.1a3.87,3.87,0,1,1-3.86-3.86A3.86,3.86,0,0,1,49.53,21.1Z"/><path class="a" d="M12.16,35.28v5.16h5.15V35.28Zm7.73,0v5.16H25V35.28Zm7.73,0v5.16h5.16V35.28Zm7.74,0v5.16h5.15V35.28Zm7.73,0v5.16h5.15V35.28Z"/><path class="a" d="M12.16,43v5.16h5.15V43Zm7.73,0v5.16H25V43Zm7.73,0v5.16h5.16V43Zm7.74,0v5.16h5.15V43Zm7.73,0v5.16h5.15V43Z"/><path class="a" d="M12.16,50.75V55.9h5.15V50.75Zm7.73,0V55.9H25V50.75Zm7.73,0V55.9h5.16V50.75Zm7.74,0V55.9h5.15V50.75Zm7.73,0V55.9h5.15V50.75Z"/><path class="e" d="M14.73,9.5a2.58,2.58,0,0,0-2.57,2.58v7.73a2.58,2.58,0,1,0,5.15,0V12.08A2.58,2.58,0,0,0,14.73,9.5Zm30.94,0a2.58,2.58,0,0,0-2.58,2.58v7.73a2.58,2.58,0,1,0,5.15,0V12.08A2.58,2.58,0,0,0,45.67,9.5Z"/><path class="a" d="M14.73,9.5a2.5,2.5,0,0,0-2.57,2.58v5.16h5.15V12.08A2.5,2.5,0,0,0,14.73,9.5Zm30.94,0a2.5,2.5,0,0,0-2.58,2.58v5.16h5.15V12.08A2.5,2.5,0,0,0,45.67,9.5Z"/><path class="f" d="M14.83,78.66H7.68l0,6.41-3-.63V69.92l0,0,0,0H14l1.74,2h-8V76.7h5.42Z"/><path class="g" d="M22.19,69.57v15.5l-2.72-.61V69Z"/><path class="g" d="M34.33,74l2.72.61V85.09l-2.72-.61V83.39c-1.16,1.19-2.24,1.75-3.23,1.68a6,6,0,0,1-2.48-1.61c-1.19-1-1.82-1.78-1.89-2.18s-.09-2.79-.09-7.24l2.7.61c-.07,5,0,7.65.11,8a1.16,1.16,0,0,0,1.32.39,4.74,4.74,0,0,0,2-1.24,6.81,6.81,0,0,0,1.6-2.25Z"/><path class="g" d="M41.59,75.55,40.93,74h1.79V71.67l2.68.61V74h2.66l.65,1.53H45.4V79c0,.39,0,.79,0,1.18a5.71,5.71,0,0,0,.07,1.11q.07.53.18,1A1.52,1.52,0,0,0,46,83a1.41,1.41,0,0,0,.63.35,1.89,1.89,0,0,0,1-.12,6.51,6.51,0,0,0,1.32-.69l.59.67a11.93,11.93,0,0,1-2.12,1.62,2.06,2.06,0,0,1-1.79-.12,6.11,6.11,0,0,1-2-1.38,2.44,2.44,0,0,1-.86-1.53V75.55Z"/><path class="g" d="M53.09,75.55,52.44,74h1.79V71.67l2.68.61V74h2.66l.65,1.53H56.91V79c0,.39,0,.79,0,1.18A6.64,6.64,0,0,0,57,81.32a7.77,7.77,0,0,0,.19,1,1.43,1.43,0,0,0,.37.7,1.31,1.31,0,0,0,.63.35,1.9,1.9,0,0,0,1-.12,7.07,7.07,0,0,0,1.32-.69l.58.67a11.58,11.58,0,0,1-2.11,1.62,2.08,2.08,0,0,1-1.8-.12,6.17,6.17,0,0,1-2-1.38,2.39,2.39,0,0,1-.86-1.53V75.55Z"/><path class="g" d="M67.83,82.19a2.47,2.47,0,0,0,1.37.92,2.54,2.54,0,0,0,1.6-.21,10,10,0,0,0,1.41-.76c.37-.26.82-.59,1.32-1l.44.44.83.92.43.43A13.26,13.26,0,0,1,72,84.77a3.61,3.61,0,0,1-2.59,0,9.42,9.42,0,0,1-3.53-2.52,4.47,4.47,0,0,1-1.14-2.59,5.58,5.58,0,0,1,.39-2.77,5.35,5.35,0,0,1,1.65-2.19,3.8,3.8,0,0,1,2.45-.91,5.52,5.52,0,0,1,2.59,1.12,21.34,21.34,0,0,1,2.84,2.19s-.59.49-1.73,1.34S70.67,80.12,69.52,81Zm-.51-2.09,5-3.38A3.6,3.6,0,0,0,69.6,76a2.56,2.56,0,0,0-1.69,1.36A5.87,5.87,0,0,0,67.32,80.1Z"/><path class="g" d="M82.19,74.63v1.61c1.06-1.67,2-2.5,2.7-2.5a5.52,5.52,0,0,1,1.83.55,13,13,0,0,1,2.16,1.15l-1.51,2.18A5,5,0,0,0,85,76.52a2,2,0,0,0-1.58.39,6.45,6.45,0,0,0-1.26,1.58v6.58l-2.73-.61V74Z"/><path class="f" d="M76.09,18.39V32.67L73,32,66,22.06l0,10.61L63,32V17.52l3,.87L73,28.27V17.52Z"/><path class="g" d="M65.78,42.39l-1.18-2c1-.26,2.15-.5,3.39-.74a13.78,13.78,0,0,1,2.34-.32c.32,0,1,.49,1.92,1.42a16.2,16.2,0,0,1,1.94,2.15,4.56,4.56,0,0,1,.18,1.76c0,1,0,2.13-.06,3.41s0,2.14,0,2.59L71.58,50l0-1.11c-1.18,1.17-2.14,1.76-2.88,1.76s-1.58-.68-2.66-2-1.61-2.25-1.61-2.81.3-.87.92-1.25a7.63,7.63,0,0,1,2.23-.88c.88-.21,1.66-.37,2.34-.49s1.27-.2,1.74-.24l0-.59c0-.69-.36-1.07-1.12-1.13a16.89,16.89,0,0,0-4.4.94h0l0,0h0l0,0h0l0,0h0l0,0h-.06l0,0h-.05l0,0Zm1.09,5.47a1,1,0,0,0,.74.39A3.75,3.75,0,0,0,69.25,48a9.47,9.47,0,0,0,2.39-1.34l0-1.92Q65.91,46.38,66.87,47.86Z"/><path class="g" d="M64,58.23v.59a3.94,3.94,0,0,1,2.86-1.42,3.13,3.13,0,0,1,1.35.78A16.29,16.29,0,0,1,70,59.84c1.37-1.7,2.63-2.51,3.8-2.44.46,0,1.28.61,2.45,1.73a6.7,6.7,0,0,1,1.86,2.3q.09.57.09,7.24l-2.7-.61c.08-5,0-7.64-.11-7.93a.9.9,0,0,0-.76-.51,2,2,0,0,0-1.06.33,7.46,7.46,0,0,0-1.17.88c-.39.36-.78.76-1.18,1.21q0,1.2,0,6.63l-2.7-.61c.08-5,0-7.64-.11-7.93a1,1,0,0,0-.82-.51,2,2,0,0,0-1.15.41,8.35,8.35,0,0,0-1.27,1A14.46,14.46,0,0,0,64,62.39v6.28l-2.72-.61V57.62Z"/><path class="g" d="M71.76,88.56l2.72.61q.13,14.72,0,14.84l-1.12.25c-.67.16-1.11.25-1.29.28l-1.17.13a5.38,5.38,0,0,1-1.4,0c-.34-.06-.76-.16-1.27-.3a5.77,5.77,0,0,1-1.46-.6,5.41,5.41,0,0,1-1.92-1.65,3.82,3.82,0,0,1-.72-2A6.83,6.83,0,0,1,64.37,98a6.05,6.05,0,0,1,.91-1.94,9.66,9.66,0,0,1,1.33-1.55,4.2,4.2,0,0,1,1.49-1,2.07,2.07,0,0,1,1.39-.1,3.66,3.66,0,0,1,.6.25c.21.11.39.2.53.29l.59.39c.25.18.43.3.55.37ZM67.6,102.92c1.15.59,2.53.3,4.16-.84V96a4.56,4.56,0,0,0-1.76-.5,2.07,2.07,0,0,0-1.75.9A7,7,0,0,0,67,98.65a6.31,6.31,0,0,0-.32,2.59A1.9,1.9,0,0,0,67.6,102.92Z"/><path class="g" d="M64.1,114.39l-1.18-2c1-.26,2.15-.5,3.39-.74a13.84,13.84,0,0,1,2.35-.32c.31,0,1,.49,1.91,1.42a16.2,16.2,0,0,1,1.94,2.15,4.53,4.53,0,0,1,.18,1.75q0,1.5-.06,3.42c0,1.27,0,2.14,0,2.59L69.9,122l0-1.12q-1.77,1.77-2.88,1.77c-.69,0-1.58-.68-2.66-2s-1.61-2.25-1.61-2.81.31-.87.92-1.25a7.75,7.75,0,0,1,2.23-.88c.88-.21,1.66-.37,2.34-.49s1.27-.2,1.75-.24l0-.59c0-.7-.36-1.07-1.11-1.13a16.86,16.86,0,0,0-4.41.94h0l0,0h0l0,0h0l0,0h0l0,0h-.07l0,0h0l0,0Zm1.09,5.47a1,1,0,0,0,.74.39,3.81,3.81,0,0,0,1.65-.29A9.43,9.43,0,0,0,70,118.62l0-1.92Q64.24,118.38,65.19,119.86Z"/><path class="f" d="M80.16,122.58A6.53,6.53,0,0,1,78.9,122a12.13,12.13,0,0,1-1.14-.68v6.21L75,127q-.06-14.49,0-14.8c.92-.26,1.65-.44,2.19-.55a13.58,13.58,0,0,1,1.86-.22,5.32,5.32,0,0,1,2,.26,8.84,8.84,0,0,1,2,1A5.59,5.59,0,0,1,85,114.68a4.48,4.48,0,0,1,.53,2.33,6.47,6.47,0,0,1-.59,2.27,6.6,6.6,0,0,1-1.29,1.92,5.35,5.35,0,0,1-1.72,1.18A2.66,2.66,0,0,1,80.16,122.58Zm1.46-3.27a7.21,7.21,0,0,0,.91-1.62,5.15,5.15,0,0,0,.37-1.62,5.26,5.26,0,0,0-.13-1.45,2.18,2.18,0,0,0-.63-1.12,2.35,2.35,0,0,0-1-.57,2.68,2.68,0,0,0-1.47.13,6.84,6.84,0,0,0-1.86,1l0,6.17a2.51,2.51,0,0,0,1,.35,3.3,3.3,0,0,0,1.45-.2A3.12,3.12,0,0,0,81.62,119.31Z"/><path class="f" d="M89.53,110.29a3.44,3.44,0,0,1-1.65-1.59,1.72,1.72,0,0,1,.65-.89,2.59,2.59,0,0,1,1-.64,3.24,3.24,0,0,1,1.63,1.55A3.08,3.08,0,0,1,89.53,110.29Zm1.31,1.94v10.44l-2.72-.61V111.62Z"/><path class="g" d="M71.53,129.62l2.73.61v11.16a3.32,3.32,0,0,1-1.12,2.39,6.29,6.29,0,0,1-2.45,1.58,2.93,2.93,0,0,1-2.08.15c-.19-.09-.47-.24-.86-.46l-1.44-.84L65,143.44l.56-.85c.88.5,1.46.83,1.75,1a2.75,2.75,0,0,0,2.89-.08c.88-.57,1.31-1.7,1.31-3.39v-.81a3.86,3.86,0,0,1-2.72,1.38c-.47,0-1.22-.57-2.26-1.6a5.86,5.86,0,0,1-1.66-2.19q-.14-.88-.14-7.3l2.71.61q-.13,7.53.15,7.95c.44.52,1,.54,1.84.05a6.17,6.17,0,0,0,2.08-2.25Z"/></svg>